<svg xmlns="http://www.w3.org/2000/svg" xmlns:xlink="http://www.w3.org/1999/xlink" version="1.1" x="0px" y="0px" viewBox="0 0 100 100" enable-background="new 0 0 100 100" xml:space="preserve"><g><g><path  d="M70.455,19.345v1.364c0,2.236-1.8,4.091-4.091,4.091c-2.236,0-4.091-1.855-4.091-4.091v-1.364    c0-2.291,1.855-4.091,4.091-4.091C68.655,15.255,70.455,17.055,70.455,19.345z"></path><path  d="M37.727,19.345v1.364c0,2.236-1.8,4.091-4.091,4.091c-2.236,0-4.091-1.855-4.091-4.091v-1.364    c0-2.291,1.855-4.091,4.091-4.091C35.927,15.255,37.727,17.055,37.727,19.345z"></path><path  d="M55.455,73.182c0.764,0,1.364-0.6,1.364-1.364v-1.364H43.182v1.364c0,0.764,0.6,1.364,1.364,1.364H55.455z     M35,70.455H20c-6.764,0-12.273-5.509-12.273-12.273V39.091c0-6.327,4.8-11.509,10.909-12.218V14.545    C18.636,9.255,22.891,5,28.182,5h43.636c5.291,0,9.545,4.255,9.545,9.545v12.327c6.109,0.709,10.909,5.891,10.909,12.218v19.091    c0,6.764-5.509,12.273-12.273,12.273H65v1.364c0,5.291-4.255,9.545-9.545,9.545h-1.364v9.545c0,2.236-1.8,4.091-4.091,4.091    c-2.236,0-4.091-1.855-4.091-4.091v-9.545h-1.364c-5.291,0-9.545-4.255-9.545-9.545V70.455z M20,35    c-2.236,0-4.091,1.855-4.091,4.091v19.091c0,2.236,1.855,4.091,4.091,4.091h60c2.236,0,4.091-1.855,4.091-4.091V39.091    C84.091,36.855,82.236,35,80,35H20z M26.818,14.545v12.273h46.364V14.545c0-0.764-0.6-1.364-1.364-1.364H28.182    C27.418,13.182,26.818,13.782,26.818,14.545z"></path></g></g></svg>