<svg xmlns="http://www.w3.org/2000/svg" viewBox="0 0 139.88 100"><path d="M99 40.05c-8.18-7.2-19.65-8.94-30.13-7.06-12 2.16-21.61 8.62-28.95 18.25a62.66 62.66 0 0 0-7.23 11.84c.59.13 1.15.3 1.71.48a14.86 14.86 0 0 1 4.57 2.5A48 48 0 0 1 52.7 49.12a36.22 36.22 0 0 1 9.79-6 41.5 41.5 0 0 1 5.45-2c8.66-2.54 17.92-1.65 25.18 4 8.19 6.44 10.64 15.64 12.16 25.19.64 0 1.29 0 1.94.11a12.67 12.67 0 0 1 1-1.08 13.56 13.56 0 0 1 2.6-2C109.25 57.22 107 47.09 99 40.05z" fill="#fba33a"/><path d="M86.51 50.5a19.84 19.84 0 0 0-10.69-2.32A31.26 31.26 0 0 0 68 49.52a37.09 37.09 0 0 0-23.58 22.13c.3 0 .6.07.89.12A17.33 17.33 0 0 1 52 74.36c4.47-10.94 15-20.67 27.41-18.12 9.44 1.95 11.69 14 13.3 22.73l.46.08a8.82 8.82 0 0 1 4-6.7 10.64 10.64 0 0 1 2.07-1.08c-2.41-8.5-5.69-16.84-12.73-20.77zM54.68 81.11a10.73 10.73 0 0 0-3.57-4.42 14.38 14.38 0 0 0-6.63-2.61c-.27 0-.54-.06-.82-.09a15.92 15.92 0 0 0-2.49 0 10.52 10.52 0 0 0-2.53-4.92c-.23-.24-.46-.47-.7-.7a12.61 12.61 0 0 0-4.3-2.51 15.67 15.67 0 0 0-1.93-.52 15.31 15.31 0 0 0-6.25.07 12.33 12.33 0 0 0-8.3 6c-6.2-.39-12.61 2.89-13.55 9.7C2.54 89 9.76 92.32 16.38 92.91c4.46 9.56 17.05 8.9 23.56 1.31a19.08 19.08 0 0 0 5.55.18c13.05-.8 9.19-13.29 9.19-13.29zM21.73 91.37a3 3 0 1 1 3 3 3 3 0 0 1-3-3zm7.79-12.77a2.62 2.62 0 0 1-.06.57A2.77 2.77 0 0 1 24 78.6a2.81 2.81 0 0 1 .24-1.12 2.77 2.77 0 0 1 5.3 1.12zm6.08 7.16a2.65 2.65 0 0 1 .4-1.31 2.56 2.56 0 0 1 4.76 1 3 3 0 0 1 0 .31 2.58 2.58 0 1 1-5.15 0zM99.57 97.18a11.16 11.16 0 0 0 5.62-.74c6.64 5.33 16.32 4.78 19.54-3.41 6.55.2 13.48-3.71 13.45-11.19 0-5.51-4.59-8.62-9.29-8.46-1.83-4.75-7.38-6.79-12.5-5.91a12.65 12.65 0 0 0-5.23 2.14 10.66 10.66 0 0 0-2.49 2.48c-.15.2-.32.39-.46.61a19.06 19.06 0 0 0-2.6-.25 18.4 18.4 0 0 0-2.6.09 11.58 11.58 0 0 0-2.71.59c-.18.06-.32.15-.49.22a14.3 14.3 0 0 0-2.33 1.45c-1.66 1.07-2.06 2.69-2.24 4.84-.25 3 1.14 7.5 1.14 7.5s-8.92 8.8 3.19 10.04zm24.17-12.1a2.07 2.07 0 1 1 2.06 2.06 2.07 2.07 0 0 1-2.06-2.06zm-9-6.19a2 2 0 0 1-2-2 2.07 2.07 0 0 1 .11-.62 2 2 0 0 1 1.84-1.27 1.92 1.92 0 0 1 1 .27 2 2 0 0 1-1 3.65zm-3.44 11.62a2.42 2.42 0 1 1 2.42-2.42 2.41 2.41 0 0 1-2.47 2.42z" fill="#6ed3f0"/><path d="M100.65 32.79c-9.3-7.31-21.85-9.14-33.29-7.34-20.9 3.3-35.84 18.26-41.24 37.4a17.27 17.27 0 0 1 5.13-.05c.48.06.94.18 1.4.28a62.66 62.66 0 0 1 7.23-11.84C47.22 41.61 56.82 35.15 68.83 33c10.48-1.88 22-.14 30.13 7.06 8 7 10.29 17.17 11.85 27.26a15.1 15.1 0 0 1 5.25-2c-.78-5.6-1-10.87-3.65-16.56-2.8-6.05-6.41-11.76-11.76-15.97zM36.8 25.16l2.39 4.52 2.14-4.65 5.03-.88-3.76-3.46.72-5.06-4.46 2.5-4.59-2.25 1.01 5.02-3.56 3.67 5.08.59zM124.49 41.17l-.57-3.83-2.7 2.78-3.82-.64 1.81 3.42-1.79 3.44 3.82-.67 2.71 2.77.55-3.84 3.47-1.72-3.48-1.71z" fill="#f8465c"/><path d="M93.12 45.12c-7.26-5.7-16.52-6.59-25.18-4a41.5 41.5 0 0 0-5.45 2 49.52 49.52 0 0 0-23.56 22.94q.34.27.66.57a12.93 12.93 0 0 1 3.41 4.9 14.36 14.36 0 0 1 1.46.12A37.09 37.09 0 0 1 68 49.52c.16-.06.31-.14.47-.19 6.07-2.2 12.68-2.3 18.08 1.17 7 3.93 10.32 12.27 12.73 20.77.11 0 .21-.1.33-.14a13.71 13.71 0 0 1 3.17-.69 21.07 21.07 0 0 1 2.54-.13c-1.56-9.55-4.01-18.75-12.2-25.19zM136.4 61.57l-.57-3.83-2.7 2.78-3.82-.64 1.81 3.42-1.79 3.44 3.82-.67 2.71 2.77.55-3.84 3.47-1.72-3.48-1.71zM7.79 58.41L4.65 61.1l-4-1.05 1.59 3.81L0 67.33 4.12 67l2.61 3.21.96-4.03 3.85-1.49-3.53-2.15-.22-4.13zM115 12.44c-.62-1.42-2.46-2.16-4.73-1.71a9.65 9.65 0 0 0-6.27 4.74 25.12 25.12 0 0 0-2.5 6.66c-.46 2-.87 3.89-1.35 6.58a14.79 14.79 0 0 1 4.2-4.71 31.9 31.9 0 0 1 5.2-3 10.85 10.85 0 0 0 4.61-3.86c.99-1.53 1.51-3.25.84-4.7z" fill="#bad44e"/><path d="M20.88 49.14A17.28 17.28 0 0 0 17.32 44a7.32 7.32 0 0 0-6.67-1.94c-2 .5-3.2 2-3.16 3.5a5.55 5.55 0 0 0 2.06 3.89A6.17 6.17 0 0 0 13.79 51a18.39 18.39 0 0 1 4.8.65A9.56 9.56 0 0 1 23 54.42a49.33 49.33 0 0 0-2.12-5.28z" fill="#6ed3f0"/><path d="M27.67 41.08a11.22 11.22 0 0 0-1.19-3.93 4.16 4.16 0 0 0-3.82-2.25 2.93 2.93 0 0 0-2.73 2.19 4.94 4.94 0 0 0 .31 3.28 2.5 2.5 0 0 0 2.17 1.54 11.91 11.91 0 0 1 3 .73A5.63 5.63 0 0 1 28 44.72c-.08-1.42-.18-2.5-.33-3.64z" fill="#fba33a"/><path d="M118.63 26a4 4 0 0 0-4.33.32 11.74 11.74 0 0 0-2.78 3c-.63.94-1.2 1.84-2 3a5.7 5.7 0 0 1 3.22-.63 12.86 12.86 0 0 1 3 .73 2.43 2.43 0 0 0 2.61-.43 4.85 4.85 0 0 0 1.69-2.83 2.93 2.93 0 0 0-1.41-3.16z" fill="#6ed3f0"/><path fill="#fba33a" d="M125.14 54.91l-.46-2.33-1.57 1.78-2.35-.29 1.2 2.04-1 2.15 2.32-.51 1.73 1.62.23-2.36 2.07-1.16-2.17-.94zM89.09 5.52a1.89 1.89 0 0 0-1.89 1.89 2.05 2.05 0 0 0 .07.34 19.93 19.93 0 0 0-11 6.1 33 33 0 0 0-2.92-10.19 1.86 1.86 0 0 0 1.35-1.77 1.89 1.89 0 1 0-2.06 1.84L70.4 15.11a14.76 14.76 0 0 0-7.4-3.95 1.5 1.5 0 0 0 .09-.42 1.91 1.91 0 1 0-.55 1.26c2.16 2.62 4.19 9 4.65 10.62A37.47 37.47 0 0 1 81 21.71c.19-2.66 4.8-9.73 7-12.8a1.79 1.79 0 0 0 1.08.38 1.89 1.89 0 1 0 0-3.77z"/></svg>